Coordinates
version=1
nRows=5
nColumns=40
inDegrees=yes

Units are S.I. units (second, meters, Newtons, ...)
If the header above contains a line with 'inDegrees', this indicates whether rotational values are in degrees (yes) or radians (no).

endheader
time	pelvis_tilt	pelvis_list	pelvis_rotation	pelvis_tx	pelvis_ty	pelvis_tz	hip_flexion_r	hip_adduction_r	hip_rotation_r	knee_angle_r	knee_angle_r_beta	ankle_angle_r	subtalar_angle_r	mtp_angle_r	hip_flexion_l	hip_adduction_l	hip_rotation_l	knee_angle_l	knee_angle_l_beta	ankle_angle_l	subtalar_angle_l	mtp_angle_l	lumbar_extension	lumbar_bending	lumbar_rotation	arm_flex_r	arm_add_r	arm_rot_r	elbow_flex_r	pro_sup_r	wrist_flex_r	wrist_dev_r	arm_flex_l	arm_add_l	arm_rot_l	elbow_flex_l	pro_sup_l	wrist_flex_l	wrist_dev_l
      0.00000000	      2.39462798	      3.71822812	      3.53578900	     -0.72891130	      0.93858761	      0.21483043	     23.09291352	    -11.88189380	    -15.99123421	     37.58925186	      0.65605621	     -0.52676821	    -10.84717034	      0.00000000	     -8.55533141	      3.79970533	    -15.94160640	     10.48970854	      0.18307995	      6.94535363	      7.66313104	      0.00000000	     -6.23544813	     -3.18405117	     -1.69201891	     44.14807974	    -16.69870081	     44.14807974	     75.33139373	     44.85475119	      0.00000000	      0.00000000	     44.14807974	    -16.69870081	     44.14807974	     75.33139373	     44.85475119	      0.00000000	      0.00000000
      0.00500000	      2.17597376	      3.98952160	      3.65639410	     -0.72280643	      0.93742362	      0.21482980	     23.52181031	    -12.12075371	    -16.08651309	     36.01639990	      0.62860476	     -0.61770567	    -10.51366086	      0.00000000	     -8.78095624	      4.06014415	    -15.82152656	     10.45085007	      0.18240174	      7.10764360	      7.76842343	      0.00000000	     -6.04875193	     -3.40269540	     -1.56275278	     44.14873408	    -16.69654407	     44.14873408	     75.33057031	     44.85575173	      0.00000000	      0.00000000	     44.14873408	    -16.69654407	     44.14873408	     75.33057031	     44.85575173	      0.00000000	      0.00000000
      0.01000000	      2.28703146	      3.87417964	      3.89136981	     -0.71652671	      0.93701571	      0.21449543	     23.30734374	    -11.88918283	    -16.42417950	     33.93086364	      0.59220529	     -1.04394505	    -10.46449599	      0.00000000	     -9.41940678	      3.88807587	    -15.54394363	     10.27828190	      0.17938986	      7.23127902	      7.84736595	      0.00000000	     -6.22208917	     -3.15575662	     -1.75148124	     44.15175915	    -16.68658666	     44.15175915	     75.32678125	     44.86030025	      0.00000000	      0.00000000	     44.15175915	    -16.68658666	     44.15175915	     75.32678125	     44.86030025	      0.00000000	      0.00000000
      0.01500000	      2.05207366	      4.27000321	      4.00631754	     -0.70992543	      0.93554678	      0.21451189	     23.82464394	    -12.34337722	    -16.69098909	     32.54645732	      0.56804284	     -1.04599895	    -10.16084744	      0.00000000	     -9.67518940	      4.27030044	    -15.58529863	     10.24856965	      0.17887128	      7.47275011	      7.98953087	      0.00000000	     -5.91889193	     -3.49394153	     -1.55759602	     44.15198968	    -16.68582895	     44.15198968	     75.32649388	     44.86064127	      0.00000000	      0.00000000	     44.15198968	    -16.68582895	     44.15198968	     75.32649388	     44.86064127	      0.00000000	      0.00000000
      0.02000000	      2.01325559	      4.30969802	      4.13567156	     -0.70360694	      0.93476586	      0.21456293	     23.81558323	    -12.19826781	    -16.70975225	     30.43773441	      0.53123868	     -1.38671469	     -9.77777219	      0.00000000	    -10.15823501	      4.25715797	    -15.39592586	     10.08640444	      0.17604097	      7.55397175	      8.29426918	      0.00000000	     -5.99746668	     -3.48893590	     -1.63602967	     44.15461984	    -16.67719216	     44.15461984	     75.32322640	     44.86448169	      0.00000000	      0.00000000	     44.15461984	    -16.67719216	     44.15461984	     75.32322640	     44.86448169	      0.00000000	      0.00000000
